<svg width="64" height="64" viewBox="0 0 64 64" fill="none" xmlns="http://www.w3.org/2000/svg">
<g id="Group">
<path id="Vector" d="M43.2 30.4H33.6V20.8C33.6 20.3757 33.4314 19.9687 33.1314 19.6686C32.8313 19.3686 32.4243 19.2 32 19.2C31.5757 19.2 31.1687 19.3686 30.8686 19.6686C30.5686 19.9687 30.4 20.3757 30.4 20.8V30.4H20.8C20.3757 30.4 19.9687 30.5686 19.6686 30.8686C19.3686 31.1687 19.2 31.5757 19.2 32C19.2 32.4244 19.3686 32.8313 19.6686 33.1314C19.9687 33.4314 20.3757 33.6 20.8 33.6H30.4V43.2C30.4 43.6244 30.5686 44.0313 30.8686 44.3314C31.1687 44.6314 31.5757 44.8 32 44.8C32.4243 44.8 32.8313 44.6314 33.1314 44.3314C33.4314 44.0313 33.6 43.6244 33.6 43.2V33.6H43.2C43.6243 33.6 44.0313 33.4314 44.3314 33.1314C44.6314 32.8313 44.8 32.4244 44.8 32C44.8 31.5757 44.6314 31.1687 44.3314 30.8686C44.0313 30.5686 43.6243 30.4 43.2 30.4Z" fill="#0A1819"/>
<path id="Vector_2" d="M32 0C25.671 0 19.4841 1.87677 14.2218 5.39297C8.95939 8.90917 4.85787 13.9069 2.43587 19.7541C0.0138651 25.6014 -0.619841 32.0355 0.614885 38.2429C1.84961 44.4503 4.89732 50.1521 9.37259 54.6274C13.8479 59.1027 19.5497 62.1504 25.7571 63.3851C31.9645 64.6198 38.3986 63.9861 44.2459 61.5641C50.0931 59.1421 55.0908 55.0406 58.607 49.7782C62.1232 44.5159 64 38.329 64 32C64 27.7977 63.1723 23.6365 61.5641 19.7541C59.956 15.8717 57.5989 12.3441 54.6274 9.37258C51.6559 6.40111 48.1283 4.044 44.2459 2.43585C40.3635 0.827704 36.2023 0 32 0ZM32 60.8C26.3039 60.8 20.7357 59.1109 15.9996 55.9463C11.2635 52.7817 7.57208 48.2838 5.39228 43.0213C3.21248 37.7588 2.64214 31.968 3.7534 26.3814C4.86465 20.7947 7.60758 15.6631 11.6353 11.6353C15.6631 7.60757 20.7948 4.86464 26.3814 3.75338C31.9681 2.64213 37.7588 3.21246 43.0213 5.39227C48.2838 7.57207 52.7817 11.2634 55.9463 15.9996C59.1109 20.7357 60.8 26.3039 60.8 32C60.8 39.6382 57.7657 46.9636 52.3647 52.3647C46.9636 57.7657 39.6382 60.8 32 60.8Z" fill="#0A1819"/>
</g>
</svg>
