<svg width="28" height="28" viewBox="0 0 28 28" fill="none" xmlns="http://www.w3.org/2000/svg">
<path d="M0 2.8C0 1.2536 1.2536 0 2.8 0H8.4C9.9464 0 11.2 1.2536 11.2 2.8C11.2 2.8 11.2 6.3 11.2 8.4C11.2 10.5 16.8 10.5 16.8 8.4C16.8 6.3 16.8 2.8 16.8 2.8C16.8 1.2536 18.0536 0 19.6 0H25.2C26.7464 0 28 1.2536 28 2.8V8.4C28 9.9464 26.7464 11.2 25.2 11.2C25.2 11.2 21 11.2 19.6 11.2C18.2 11.2 17.5 16.8 19.6 16.8C21.7 16.8 25.2 16.8 25.2 16.8C26.7464 16.8 28 18.0536 28 19.6V25.2C28 26.7464 26.7464 28 25.2 28H19.6C18.0536 28 16.8 26.7464 16.8 25.2C16.8 25.2 16.8 21.7 16.8 19.6C16.8 17.5 11.2 17.5 11.2 19.6C11.2 21.7 11.2 25.2 11.2 25.2C11.2 26.7464 9.9464 28 8.4 28H2.8C1.2536 28 0 26.7464 0 25.2V19.6C0 18.0536 1.2536 16.8 2.8 16.8C2.8 16.8 6.3 16.8 8.4 16.8C10.5 16.8 10.5 11.2 8.4 11.2C6.3 11.2 2.8 11.2 2.8 11.2C1.2536 11.2 0 9.9464 0 8.4V2.8Z" fill="#524A3D"/>
</svg>
